<?xml version="1.0" standalone="no"?>
<!DOCTYPE svg PUBLIC "-//W3C//DTD SVG 20010904//EN"
 "http://www.w3.org/TR/2001/REC-SVG-20010904/DTD/svg10.dtd">
<svg version="1.0" xmlns="http://www.w3.org/2000/svg"
 width="1012.683481pt" height="1393.000000pt" viewBox="0 0 1012.683481 1393.000000"
 preserveAspectRatio="xMidYMid meet">
<metadata>
Created by potrace 1.12, written by Peter Selinger 2001-2015
</metadata>
<g transform="translate(-0.316519,1484.000000) scale(0.100000,-0.100000)"
fill="#000000" stroke="none">
<path d="M910 14820 c-20 -20 -20 -33 -20 -1037 0 -560 3 -1164 7 -1342 6
-315 7 -324 29 -350 l22 -25 3253 -2 c1790 0 3299 2 3353 7 84 6 110 13 170
43 39 19 88 52 108 73 26 27 246 425 717 1302 l680 1264 -14 33 c-8 20 -25 38
-40 44 -17 7 -1438 10 -4136 10 -4096 0 -4109 0 -4129 -20z"/>
<path d="M9777 14788 c-14 -23 -234 -432 -490 -908 -890 -1656 -1510 -2800
-1647 -3040 -149 -261 -229 -408 -360 -660 -73 -140 -199 -376 -280 -525 -81
-148 -193 -358 -250 -465 -191 -363 -532 -993 -785 -1450 -264 -477 -434 -790
-528 -975 -67 -131 -102 -176 -160 -204 -43 -21 -47 -21 -1263 -22 -1798 -2
-3083 -13 -3117 -27 -57 -24 -56 -21 -42 -657 8 -319 19 -850 25 -1180 11
-516 14 -602 28 -617 14 -17 62 -18 716 -19 386 -1 1135 -4 1666 -8 796 -6
971 -4 1000 7 44 17 85 55 101 96 48 118 789 1491 1234 2286 727 1297 982
1760 1200 2175 87 165 232 437 323 605 90 168 288 537 440 820 437 818 1242
2312 2261 4194 155 286 281 522 281 526 0 4 -64 24 -142 44 -79 19 -153 38
-165 42 -17 5 -26 -2 -46 -38z"/>
<path d="M9405 11651 c-150 -6 -205 -22 -252 -74 -19 -20 -360 -657 -902
-1685 -112 -211 -203 -396 -204 -410 l-2 -27 975 -7 c932 -7 976 -6 1000 11
l25 18 3 1072 c2 1060 2 1071 -18 1091 -19 19 -32 20 -252 18 -128 -1 -296 -4
-373 -7z"/>
<path d="M3965 11543 c-170 -1 -605 -7 -965 -13 -472 -8 -976 -7 -1805 1
l-1149 11 -18 -22 c-17 -21 -18 -62 -17 -659 1 -705 12 -1317 23 -1343 5 -10
22 -21 39 -26 53 -14 6184 -6 6236 8 92 25 83 8 580 1024 459 936 460 938 446
971 -7 19 -22 38 -33 44 -18 10 -2166 12 -3337 4z m84 -469 l31 -26 0 -521
c-1 -551 0 -540 -47 -565 -16 -9 -406 -12 -1543 -12 l-1521 0 -24 24 c-13 13
-26 39 -30 57 -3 19 -5 256 -3 527 l3 494 28 24 28 24 1524 0 1523 0 31 -26z"/>
<path d="M7811 8954 c-52 -23 -41 -6 -381 -614 -103 -184 -321 -601 -486 -927
-244 -483 -296 -595 -286 -605 10 -10 61 -13 195 -14 100 0 855 -4 1678 -9
l1497 -8 17 27 c16 25 17 89 12 1069 -2 573 -8 1050 -12 1060 -4 9 -17 19 -29
22 -11 3 -507 6 -1100 8 -781 1 -1086 -1 -1105 -9z"/>
<path d="M235 8949 c-104 -3 -197 -8 -206 -12 -14 -7 -16 -104 -22 -949 -6
-860 -6 -944 9 -966 l17 -25 1066 8 c586 4 1721 9 2521 10 l1455 3 173 314
c274 495 809 1481 816 1506 9 27 -9 85 -31 104 -13 11 -500 13 -2812 13 -1538
0 -2881 -2 -2986 -6z m3800 -385 c44 -17 45 -35 45 -569 l0 -507 -29 -29 -29
-29 -1527 0 -1526 0 -24 25 -25 24 0 521 0 521 25 24 24 25 1525 0 c838 0
1532 -3 1541 -6z"/>
<path d="M6388 6277 c-47 -12 -94 -51 -121 -100 -13 -23 -79 -148 -147 -277
-67 -129 -232 -439 -367 -688 -311 -577 -577 -1110 -567 -1135 4 -10 16 -22
28 -25 11 -4 536 -4 1166 -1 630 4 1713 7 2406 8 l1262 1 6 383 c20 1274 23
1802 9 1825 l-14 22 -1814 -2 c-998 -2 -1829 -7 -1847 -11z"/>
<path d="M1950 3200 l0 -120 300 0 300 0 0 -1085 0 -1085 370 0 370 0 0 1085
0 1085 295 0 295 0 0 120 0 120 -965 0 -965 0 0 -120z"/>
<path d="M4070 2115 l0 -1205 350 0 350 0 0 494 0 493 243 6 c324 7 456 31
634 117 187 91 294 230 334 435 6 28 10 104 10 170 -1 407 -227 633 -686 685
-50 5 -343 10 -662 10 l-573 0 0 -1205z m974 970 c153 -40 233 -154 258 -366
13 -109 2 -250 -27 -345 -35 -117 -129 -212 -237 -240 -29 -8 -101 -14 -160
-14 l-108 0 0 490 0 490 108 0 c64 0 131 -6 166 -15z"/>
<path d="M6230 2115 l0 -1205 350 0 350 0 0 494 0 493 243 6 c324 7 456 31
634 117 187 91 294 230 334 435 6 28 10 104 10 170 -1 407 -227 633 -686 685
-50 5 -343 10 -662 10 l-573 0 0 -1205z m974 970 c153 -40 233 -154 258 -366
13 -109 2 -250 -27 -345 -35 -117 -129 -212 -237 -240 -29 -8 -101 -14 -160
-14 l-108 0 0 490 0 490 108 0 c64 0 131 -6 166 -15z"/>
</g>
</svg>
